# xmcd
#
# Track frame offsets: 
#        150
#        14229
#        28287
#        41042
#        52160
#        63947
#        78409
#        89520
#        99064
#        121774
#
# Disc length: 1845 seconds
#
# Revision: 0
# Processed by: cddbd v1.4PL0 Copyright (c) Steve Scherf et al.
# Submitted via: ExactAudioCopy v0.90b2
#
DISCID=8207330a
DTITLE=Various Artist - All Ears
DYEAR=1975
DGENRE=Country
TTITLE0=Hey Shirley (This is Squirrely)
TTITLE1=Honey Bee (Please Answer Me)
TTITLE2=Come On, Come On , CB Baby
TTITLE3=Everybody's Somebody (In Our CB World)
TTITLE4=Hey Good Buddy (Where's My Baby)
TTITLE5=The Handles Hall of Fame
TTITLE6=Listenin' CB Blues
TTITLE7=Ain't Ever Gonna Be Lonely Again
TTITLE8=L.J.'s CB Radio
TTITLE9=The Night I Talked to the Lord
EXTD=Ten original songs involving CB 2-way radio.
EXTT0=
EXTT1=
EXTT2=
EXTT3=
EXTT4=
EXTT5=
EXTT6=
EXTT7=
EXTT8=
EXTT9=
PLAYORDER=
